<svg width="24" height="24" viewBox="0 0 48 48" xmlns="http://www.w3.org/2000/svg">
  <path fill="#FFC107" d="M43.611 20.083H42V20H24v8h11.303C33.646 32.658 29.189 36 24 36c-6.627 0-12-5.373-12-12s5.373-12 12-12c3.059 0 5.842 1.154 7.959 3.041l5.657-5.657C34.95 6.053 29.727 4 24 4 12.955 4 4 12.955 4 24s8.955 20 20 20 20-8.955 20-20c0-1.341-.138-2.65-.389-3.917z"></path>
  <path fill="#FF3D00" d="M6.306 14.691l6.571 4.819C14.655 16.108 18.961 12 24 12c3.059 0 5.842 1.154 7.959 3.041l5.657-5.657C34.95 6.053 29.727 4 24 4 16.318 4 9.656 8.337 6.306 14.691z"></path>
  <path fill="#4CAF50" d="M24 44c5.081 0 9.788-1.946 13.313-5.122l-6.148-5.204C29.121 35.177 26.701 36 24 36c-5.17 0-9.614-3.317-11.279-7.946l-6.518 5.02C9.525 39.556 16.227 44 24 44z"></path>
  <path fill="#1976D2" d="M43.611 20.083H42V20H24v8h11.303c-.793 2.262-2.231 4.169-4.138 5.674l.003-.002 6.148 5.204C36.873 39.267 44 34 44 24c0-1.341-.138-2.65-.389-3.917z"></path>
</svg>
